<?xml version="1.0" encoding="UTF-8"?>
<svg id="Capa_1" data-name="Capa 1" xmlns="http://www.w3.org/2000/svg" viewBox="0 0 62.36 62.36">
  <defs>
    <style>
      .cls-1 {
        fill: #0e0e0e;
        stroke-width: 0px;
      }

      .cls-2 {
        fill: none;
        stroke: #fff;
        stroke-miterlimit: 10;
      }
    </style>
  </defs>
  <polygon class="cls-1" points="4.22 22.42 4.22 39.94 14.52 54.11 31.18 59.53 47.84 54.11 58.14 39.94 58.14 22.42 47.84 8.25 31.18 2.83 14.52 8.25 4.22 22.42"/>
  <polygon class="cls-2" points="4.22 22.42 4.22 39.94 14.52 54.11 31.18 59.53 47.84 54.11 58.14 39.94 58.14 22.42 47.84 8.25 31.18 2.83 14.52 8.25 4.22 22.42"/>
  <line class="cls-2" x1="14.52" y1="8.25" x2="47.84" y2="8.25"/>
  <line class="cls-2" x1="4.22" y1="22.42" x2="58.14" y2="22.42"/>
  <line class="cls-2" x1="4.22" y1="39.94" x2="58.14" y2="39.94"/>
  <line class="cls-2" x1="13.21" y1="39.94" x2="13.21" y2="22.42"/>
  <line class="cls-2" x1="22.19" y1="39.94" x2="22.19" y2="22.42"/>
  <line class="cls-2" x1="31.18" y1="39.94" x2="31.18" y2="22.42"/>
  <line class="cls-2" x1="40.17" y1="39.94" x2="40.17" y2="22.42"/>
  <line class="cls-2" x1="49.15" y1="39.94" x2="49.15" y2="22.42"/>
  <line class="cls-2" x1="20.07" y1="54.11" x2="13.21" y2="39.94"/>
  <line class="cls-2" x1="25.63" y1="54.11" x2="22.19" y2="39.94"/>
  <line class="cls-2" x1="31.18" y1="54.39" x2="31.18" y2="39.94"/>
  <line class="cls-2" x1="36.73" y1="54.11" x2="40.17" y2="39.94"/>
  <line class="cls-2" x1="42.29" y1="54.11" x2="49.15" y2="39.94"/>
  <line class="cls-2" x1="31.18" y1="59.53" x2="20.07" y2="54.11"/>
  <line class="cls-2" x1="25.63" y1="54.11" x2="31.18" y2="59.53"/>
  <line class="cls-2" x1="31.18" y1="54.11" x2="31.18" y2="59.53"/>
  <line class="cls-2" x1="36.73" y1="54.11" x2="31.18" y2="59.53"/>
  <line class="cls-2" x1="42.29" y1="54.11" x2="31.18" y2="59.53"/>
  <line class="cls-2" x1="42.29" y1="8.25" x2="49.15" y2="22.42"/>
  <line class="cls-2" x1="36.73" y1="8.25" x2="40.17" y2="22.42"/>
  <line class="cls-2" x1="31.18" y1="7.97" x2="31.18" y2="22.42"/>
  <line class="cls-2" x1="25.63" y1="8.25" x2="22.19" y2="22.42"/>
  <line class="cls-2" x1="20.07" y1="8.25" x2="13.21" y2="22.42"/>
  <line class="cls-2" x1="31.18" y1="2.83" x2="42.29" y2="8.25"/>
  <line class="cls-2" x1="36.73" y1="8.25" x2="31.18" y2="2.83"/>
  <line class="cls-2" x1="31.18" y1="8.25" x2="31.18" y2="2.83"/>
  <line class="cls-2" x1="25.63" y1="8.25" x2="31.18" y2="2.83"/>
  <line class="cls-2" x1="20.07" y1="8.25" x2="31.18" y2="2.83"/>
  <line class="cls-2" x1="14.52" y1="54.11" x2="47.84" y2="54.11"/>
  <line class="cls-2" x1="13.21" y1="22.42" x2="4.22" y2="39.94"/>
  <line class="cls-2" x1="22.19" y1="22.42" x2="13.21" y2="39.94"/>
  <line class="cls-2" x1="31.18" y1="22.42" x2="22.19" y2="39.94"/>
  <line class="cls-2" x1="40.17" y1="22.42" x2="31.18" y2="39.94"/>
  <line class="cls-2" x1="49.15" y1="22.42" x2="40.17" y2="39.94"/>
  <line class="cls-2" x1="58.14" y1="22.42" x2="49.15" y2="39.94"/>
  <line class="cls-2" x1="20.07" y1="8.25" x2="4.22" y2="22.42"/>
  <line class="cls-2" x1="25.63" y1="8.25" x2="13.21" y2="22.42"/>
  <line class="cls-2" x1="31.18" y1="7.97" x2="22.19" y2="22.42"/>
  <line class="cls-2" x1="31.18" y1="22.42" x2="36.73" y2="8.25"/>
  <line class="cls-2" x1="40.17" y1="22.42" x2="42.29" y2="8.25"/>
  <line class="cls-2" x1="49.15" y1="22.42" x2="47.84" y2="8.25"/>
  <line class="cls-2" x1="42.29" y1="54.11" x2="58.14" y2="39.94"/>
  <line class="cls-2" x1="36.73" y1="54.11" x2="49.15" y2="39.94"/>
  <line class="cls-2" x1="31.18" y1="54.39" x2="40.17" y2="39.94"/>
  <line class="cls-2" x1="25.63" y1="54.11" x2="31.18" y2="39.94"/>
  <line class="cls-2" x1="20.07" y1="54.11" x2="22.19" y2="39.94"/>
  <line class="cls-2" x1="14.52" y1="53.82" x2="13.21" y2="39.94"/>
</svg>