<?xml version="1.0" encoding="UTF-8"?>
<svg id="Capa_1" data-name="Capa 1" xmlns="http://www.w3.org/2000/svg" viewBox="0 0 62.36 62.36">
  <defs>
    <style>
      .cls-1 {
        fill: #0e0e0e;
        stroke-width: 0px;
      }

      .cls-2 {
        fill: none;
        stroke: #fff;
        stroke-miterlimit: 10;
      }
    </style>
  </defs>
  <rect class="cls-1" x="11.13" y="11.14" width="40.09" height="40.09" transform="translate(-12.92 31.18) rotate(-45)"/>
  <rect class="cls-2" x="11.13" y="11.14" width="40.09" height="40.09" transform="translate(-12.92 31.18) rotate(-45)"/>
  <line class="cls-2" x1="12.29" y1="31.18" x2="2.84" y2="31.18"/>
  <line class="cls-2" x1="21.73" y1="31.18" x2="12.29" y2="31.18"/>
  <line class="cls-2" x1="31.18" y1="31.18" x2="21.73" y2="31.18"/>
  <line class="cls-2" x1="40.63" y1="31.18" x2="31.18" y2="31.18"/>
  <line class="cls-2" x1="50.08" y1="31.18" x2="40.63" y2="31.18"/>
  <line class="cls-2" x1="59.53" y1="31.18" x2="50.08" y2="31.18"/>
  <line class="cls-2" x1="12.29" y1="31.18" x2="31.18" y2="2.83"/>
  <line class="cls-2" x1="21.73" y1="31.18" x2="31.18" y2="2.83"/>
  <line class="cls-2" x1="31.18" y1="31.18" x2="31.18" y2="2.83"/>
  <line class="cls-2" x1="40.63" y1="31.18" x2="31.18" y2="2.83"/>
  <line class="cls-2" x1="50.08" y1="31.18" x2="31.18" y2="2.83"/>
  <line class="cls-2" x1="50.08" y1="31.18" x2="31.19" y2="59.53"/>
  <line class="cls-2" x1="40.63" y1="31.18" x2="31.19" y2="59.53"/>
  <line class="cls-2" x1="31.19" y1="31.18" x2="31.19" y2="59.53"/>
  <line class="cls-2" x1="21.73" y1="31.18" x2="31.19" y2="59.53"/>
  <line class="cls-2" x1="12.29" y1="31.18" x2="31.19" y2="59.53"/>
</svg>