<?xml version="1.0" encoding="UTF-8"?>
<svg id="Capa_1" data-name="Capa 1" xmlns="http://www.w3.org/2000/svg" viewBox="0 0 62.36 62.36">
  <defs>
    <style>
      .cls-1 {
        fill: #fff;
        stroke-width: 0px;
      }

      .cls-2 {
        fill: none;
        stroke: #fff;
        stroke-linecap: round;
        stroke-miterlimit: 10;
        stroke-width: 3px;
      }
    </style>
  </defs>
  <path class="cls-2" d="M35.88,19.44c-.99,2.44-2.34,6.64-2.3,12,.04,5.09,1.33,9.1,2.3,11.49"/>
  <path class="cls-2" d="M27.27,9.01c-1.87,4.6-4.42,12.53-4.34,22.65.08,9.62,2.5,17.17,4.34,21.69"/>
  <path class="cls-2" d="M18.24,2.83c-2.39,5.88-5.65,16.02-5.55,28.96.1,12.3,3.2,21.96,5.55,27.73"/>
  <path class="cls-1" d="M58.76,28.26l-12.8-7.39c-2.25-1.3-5.06.32-5.06,2.92v14.78c0,2.6,2.81,4.22,5.06,2.92l12.8-7.39c2.25-1.3,2.25-4.54,0-5.84Z"/>
</svg>