<?xml version="1.0" encoding="UTF-8"?>
<svg id="Capa_1" data-name="Capa 1" xmlns="http://www.w3.org/2000/svg" viewBox="0 0 50.17 57.93">
  <defs>
    <style>
      .cls-1 {
        stroke-width: 1.07px;
      }

      .cls-1, .cls-2, .cls-3, .cls-4 {
        fill: none;
        stroke: #fff;
        stroke-miterlimit: 10;
      }

      .cls-5 {
        fill: #0e0e0e;
        stroke-width: 0px;
      }

      .cls-2 {
        stroke-width: 1.11px;
      }

      .cls-4 {
        stroke-width: 1.11px;
      }
    </style>
  </defs>
  <polygon class="cls-5" points=".54 14.79 .54 43.14 25.09 57.31 49.63 43.14 49.63 14.79 25.09 .62 .54 14.79"/>
  <polygon class="cls-1" points=".54 14.79 .54 43.14 25.09 57.31 49.63 43.14 49.63 14.79 25.09 .62 .54 14.79"/>
  <line class="cls-3" x1="49.63" y1="14.79" x2=".54" y2="14.79"/>
  <line class="cls-3" x1="49.63" y1="43.14" x2=".54" y2="43.14"/>
  <line class="cls-1" x1="25.09" y1="57.31" x2="25.09" y2=".62"/>
  <polyline class="cls-4" points="25.09 56.94 12.81 43.24 12.81 14.89 25.09 1.18"/>
  <polyline class="cls-2" points="25.09 56.94 37.36 43.24 37.36 14.89 25.09 1.18"/>
  <line class="cls-3" x1="12.81" y1="14.89" x2=".54" y2="43.14"/>
  <line class="cls-3" x1="25.09" y1="14.89" x2="12.81" y2="43.14"/>
  <line class="cls-3" x1="37.36" y1="14.89" x2="25.09" y2="43.14"/>
  <line class="cls-3" x1="49.64" y1="14.89" x2="37.36" y2="43.14"/>
</svg>